<mxfile host="app.diagrams.net" modified="2023-10-20T22:41:43.925Z" agent="Mozilla/5.0 (Macintosh; Intel Mac OS X 10_15_7) AppleWebKit/537.36 (KHTML, like Gecko) Chrome/118.0.0.0 Safari/537.36" etag="cGngTOUr5rnE2DB6Vg6I" version="21.3.5" type="device">
  <diagram name="Page-1" id="wSxofwdpU-lail7qcu4k">
    <mxGraphModel dx="934" dy="559" grid="1" gridSize="10" guides="1" tooltips="1" connect="1" arrows="1" fold="1" page="1" pageScale="1" pageWidth="850" pageHeight="1100" math="0" shadow="0">
      <root>
        <mxCell id="0" />
        <mxCell id="1" parent="0" />
        <mxCell id="N7RJcf1-_diDyAEiEuR8-4" style="edgeStyle=orthogonalEdgeStyle;rounded=0;orthogonalLoop=1;jettySize=auto;html=1;exitX=0.5;exitY=1;exitDx=0;exitDy=0;entryX=0.5;entryY=0;entryDx=0;entryDy=0;" edge="1" parent="1" source="N7RJcf1-_diDyAEiEuR8-1" target="N7RJcf1-_diDyAEiEuR8-2">
          <mxGeometry relative="1" as="geometry" />
        </mxCell>
        <mxCell id="N7RJcf1-_diDyAEiEuR8-1" value="filtered_data = []" style="rounded=0;whiteSpace=wrap;html=1;" vertex="1" parent="1">
          <mxGeometry x="400" y="60" width="120" height="60" as="geometry" />
        </mxCell>
        <mxCell id="N7RJcf1-_diDyAEiEuR8-5" style="edgeStyle=orthogonalEdgeStyle;rounded=0;orthogonalLoop=1;jettySize=auto;html=1;exitX=0.5;exitY=1;exitDx=0;exitDy=0;entryX=0.5;entryY=0;entryDx=0;entryDy=0;" edge="1" parent="1" source="N7RJcf1-_diDyAEiEuR8-2" target="N7RJcf1-_diDyAEiEuR8-3">
          <mxGeometry relative="1" as="geometry" />
        </mxCell>
        <mxCell id="N7RJcf1-_diDyAEiEuR8-2" value="index = 0" style="rounded=0;whiteSpace=wrap;html=1;" vertex="1" parent="1">
          <mxGeometry x="400" y="140" width="120" height="60" as="geometry" />
        </mxCell>
        <mxCell id="N7RJcf1-_diDyAEiEuR8-17" style="edgeStyle=orthogonalEdgeStyle;rounded=0;orthogonalLoop=1;jettySize=auto;html=1;exitX=0.5;exitY=1;exitDx=0;exitDy=0;entryX=0.5;entryY=0;entryDx=0;entryDy=0;" edge="1" parent="1" source="N7RJcf1-_diDyAEiEuR8-3" target="N7RJcf1-_diDyAEiEuR8-6">
          <mxGeometry relative="1" as="geometry" />
        </mxCell>
        <mxCell id="N7RJcf1-_diDyAEiEuR8-38" style="edgeStyle=orthogonalEdgeStyle;rounded=0;orthogonalLoop=1;jettySize=auto;html=1;exitX=1;exitY=0.5;exitDx=0;exitDy=0;entryX=0;entryY=0.5;entryDx=0;entryDy=0;" edge="1" parent="1" source="N7RJcf1-_diDyAEiEuR8-3" target="N7RJcf1-_diDyAEiEuR8-39">
          <mxGeometry relative="1" as="geometry">
            <mxPoint x="660" y="269.66666666666663" as="targetPoint" />
          </mxGeometry>
        </mxCell>
        <mxCell id="N7RJcf1-_diDyAEiEuR8-3" value="while (index &amp;lt; len(data))" style="rounded=0;whiteSpace=wrap;html=1;" vertex="1" parent="1">
          <mxGeometry x="400" y="240" width="120" height="60" as="geometry" />
        </mxCell>
        <mxCell id="N7RJcf1-_diDyAEiEuR8-19" style="edgeStyle=orthogonalEdgeStyle;rounded=0;orthogonalLoop=1;jettySize=auto;html=1;exitX=0;exitY=0.5;exitDx=0;exitDy=0;entryX=0.5;entryY=0;entryDx=0;entryDy=0;" edge="1" parent="1" source="N7RJcf1-_diDyAEiEuR8-6" target="N7RJcf1-_diDyAEiEuR8-18">
          <mxGeometry relative="1" as="geometry" />
        </mxCell>
        <mxCell id="N7RJcf1-_diDyAEiEuR8-6" value="item = data[index]" style="rounded=0;whiteSpace=wrap;html=1;" vertex="1" parent="1">
          <mxGeometry x="400" y="330" width="120" height="60" as="geometry" />
        </mxCell>
        <mxCell id="N7RJcf1-_diDyAEiEuR8-35" style="edgeStyle=orthogonalEdgeStyle;rounded=0;orthogonalLoop=1;jettySize=auto;html=1;exitX=0.5;exitY=1;exitDx=0;exitDy=0;entryX=1;entryY=0.5;entryDx=0;entryDy=0;" edge="1" parent="1" source="N7RJcf1-_diDyAEiEuR8-7" target="N7RJcf1-_diDyAEiEuR8-21">
          <mxGeometry relative="1" as="geometry" />
        </mxCell>
        <mxCell id="N7RJcf1-_diDyAEiEuR8-7" value="modified_item = item / limit" style="rounded=0;whiteSpace=wrap;html=1;" vertex="1" parent="1">
          <mxGeometry x="550" y="580" width="120" height="60" as="geometry" />
        </mxCell>
        <mxCell id="N7RJcf1-_diDyAEiEuR8-26" style="edgeStyle=orthogonalEdgeStyle;rounded=0;orthogonalLoop=1;jettySize=auto;html=1;exitX=1;exitY=0.5;exitDx=0;exitDy=0;entryX=0;entryY=0.5;entryDx=0;entryDy=0;" edge="1" parent="1" source="N7RJcf1-_diDyAEiEuR8-8" target="N7RJcf1-_diDyAEiEuR8-21">
          <mxGeometry relative="1" as="geometry" />
        </mxCell>
        <mxCell id="N7RJcf1-_diDyAEiEuR8-8" value="modified_item = item + &quot;_EXCEPTION&quot;" style="rounded=0;whiteSpace=wrap;html=1;" vertex="1" parent="1">
          <mxGeometry x="240" y="570" width="120" height="60" as="geometry" />
        </mxCell>
        <mxCell id="N7RJcf1-_diDyAEiEuR8-15" value="TRUE" style="text;html=1;strokeColor=none;fillColor=none;align=center;verticalAlign=middle;whiteSpace=wrap;rounded=0;" vertex="1" parent="1">
          <mxGeometry x="250" y="500" width="60" height="30" as="geometry" />
        </mxCell>
        <mxCell id="N7RJcf1-_diDyAEiEuR8-25" style="edgeStyle=orthogonalEdgeStyle;rounded=0;orthogonalLoop=1;jettySize=auto;html=1;exitX=0.5;exitY=1;exitDx=0;exitDy=0;entryX=0.5;entryY=0;entryDx=0;entryDy=0;" edge="1" parent="1" source="N7RJcf1-_diDyAEiEuR8-18" target="N7RJcf1-_diDyAEiEuR8-8">
          <mxGeometry relative="1" as="geometry" />
        </mxCell>
        <mxCell id="N7RJcf1-_diDyAEiEuR8-28" style="edgeStyle=orthogonalEdgeStyle;rounded=0;orthogonalLoop=1;jettySize=auto;html=1;exitX=1;exitY=0.5;exitDx=0;exitDy=0;entryX=0;entryY=0.5;entryDx=0;entryDy=0;" edge="1" parent="1" source="N7RJcf1-_diDyAEiEuR8-18" target="N7RJcf1-_diDyAEiEuR8-27">
          <mxGeometry relative="1" as="geometry" />
        </mxCell>
        <mxCell id="N7RJcf1-_diDyAEiEuR8-18" value="if item in exceptions" style="rounded=0;whiteSpace=wrap;html=1;" vertex="1" parent="1">
          <mxGeometry x="240" y="420" width="120" height="60" as="geometry" />
        </mxCell>
        <mxCell id="N7RJcf1-_diDyAEiEuR8-30" style="edgeStyle=orthogonalEdgeStyle;rounded=0;orthogonalLoop=1;jettySize=auto;html=1;exitX=0.5;exitY=1;exitDx=0;exitDy=0;entryX=0.5;entryY=0;entryDx=0;entryDy=0;" edge="1" parent="1" source="N7RJcf1-_diDyAEiEuR8-20" target="N7RJcf1-_diDyAEiEuR8-21">
          <mxGeometry relative="1" as="geometry" />
        </mxCell>
        <mxCell id="N7RJcf1-_diDyAEiEuR8-20" value="modified_item = item*2" style="rounded=0;whiteSpace=wrap;html=1;" vertex="1" parent="1">
          <mxGeometry x="400" y="530" width="120" height="60" as="geometry" />
        </mxCell>
        <mxCell id="N7RJcf1-_diDyAEiEuR8-23" style="edgeStyle=orthogonalEdgeStyle;rounded=0;orthogonalLoop=1;jettySize=auto;html=1;exitX=0.5;exitY=1;exitDx=0;exitDy=0;entryX=0.5;entryY=0;entryDx=0;entryDy=0;" edge="1" parent="1" source="N7RJcf1-_diDyAEiEuR8-21" target="N7RJcf1-_diDyAEiEuR8-22">
          <mxGeometry relative="1" as="geometry" />
        </mxCell>
        <mxCell id="N7RJcf1-_diDyAEiEuR8-21" value="&lt;font style=&quot;font-size: 7px;&quot;&gt;filtered_data.append(modified_item&lt;/font&gt;" style="rounded=0;whiteSpace=wrap;html=1;" vertex="1" parent="1">
          <mxGeometry x="400" y="650" width="120" height="60" as="geometry" />
        </mxCell>
        <mxCell id="N7RJcf1-_diDyAEiEuR8-36" style="edgeStyle=orthogonalEdgeStyle;rounded=0;orthogonalLoop=1;jettySize=auto;html=1;exitX=1;exitY=0.5;exitDx=0;exitDy=0;entryX=0;entryY=0.5;entryDx=0;entryDy=0;" edge="1" parent="1" source="N7RJcf1-_diDyAEiEuR8-22" target="N7RJcf1-_diDyAEiEuR8-3">
          <mxGeometry relative="1" as="geometry">
            <mxPoint x="340" y="240" as="targetPoint" />
            <Array as="points">
              <mxPoint x="220" y="800" />
              <mxPoint x="220" y="270" />
            </Array>
          </mxGeometry>
        </mxCell>
        <mxCell id="N7RJcf1-_diDyAEiEuR8-22" value="index += 1" style="rounded=0;whiteSpace=wrap;html=1;" vertex="1" parent="1">
          <mxGeometry x="400" y="770" width="120" height="60" as="geometry" />
        </mxCell>
        <mxCell id="N7RJcf1-_diDyAEiEuR8-31" style="edgeStyle=orthogonalEdgeStyle;rounded=0;orthogonalLoop=1;jettySize=auto;html=1;exitX=0.5;exitY=1;exitDx=0;exitDy=0;entryX=0.5;entryY=0;entryDx=0;entryDy=0;" edge="1" parent="1" source="N7RJcf1-_diDyAEiEuR8-27" target="N7RJcf1-_diDyAEiEuR8-20">
          <mxGeometry relative="1" as="geometry" />
        </mxCell>
        <mxCell id="N7RJcf1-_diDyAEiEuR8-33" style="edgeStyle=orthogonalEdgeStyle;rounded=0;orthogonalLoop=1;jettySize=auto;html=1;exitX=1;exitY=0.5;exitDx=0;exitDy=0;entryX=0.5;entryY=0;entryDx=0;entryDy=0;" edge="1" parent="1" source="N7RJcf1-_diDyAEiEuR8-27" target="N7RJcf1-_diDyAEiEuR8-7">
          <mxGeometry relative="1" as="geometry" />
        </mxCell>
        <mxCell id="N7RJcf1-_diDyAEiEuR8-27" value="else if item &amp;gt; limit" style="rounded=0;whiteSpace=wrap;html=1;" vertex="1" parent="1">
          <mxGeometry x="410" y="420" width="120" height="60" as="geometry" />
        </mxCell>
        <mxCell id="N7RJcf1-_diDyAEiEuR8-29" value="FALSE" style="text;html=1;strokeColor=none;fillColor=none;align=center;verticalAlign=middle;whiteSpace=wrap;rounded=0;" vertex="1" parent="1">
          <mxGeometry x="350" y="450" width="60" height="30" as="geometry" />
        </mxCell>
        <mxCell id="N7RJcf1-_diDyAEiEuR8-32" value="TRUE" style="text;html=1;strokeColor=none;fillColor=none;align=center;verticalAlign=middle;whiteSpace=wrap;rounded=0;" vertex="1" parent="1">
          <mxGeometry x="410" y="475" width="60" height="30" as="geometry" />
        </mxCell>
        <mxCell id="N7RJcf1-_diDyAEiEuR8-34" value="FALSE" style="text;html=1;strokeColor=none;fillColor=none;align=center;verticalAlign=middle;whiteSpace=wrap;rounded=0;" vertex="1" parent="1">
          <mxGeometry x="550" y="460" width="60" height="30" as="geometry" />
        </mxCell>
        <mxCell id="N7RJcf1-_diDyAEiEuR8-37" value="TRUE" style="text;html=1;strokeColor=none;fillColor=none;align=center;verticalAlign=middle;whiteSpace=wrap;rounded=0;" vertex="1" parent="1">
          <mxGeometry x="450" y="300" width="60" height="30" as="geometry" />
        </mxCell>
        <mxCell id="N7RJcf1-_diDyAEiEuR8-45" style="edgeStyle=orthogonalEdgeStyle;rounded=0;orthogonalLoop=1;jettySize=auto;html=1;exitX=1;exitY=0.5;exitDx=0;exitDy=0;entryX=0;entryY=0.5;entryDx=0;entryDy=0;" edge="1" parent="1" source="N7RJcf1-_diDyAEiEuR8-39" target="N7RJcf1-_diDyAEiEuR8-42">
          <mxGeometry relative="1" as="geometry" />
        </mxCell>
        <mxCell id="N7RJcf1-_diDyAEiEuR8-39" value="return filtered_data" style="rounded=0;whiteSpace=wrap;html=1;" vertex="1" parent="1">
          <mxGeometry x="660" y="240" width="120" height="60" as="geometry" />
        </mxCell>
        <mxCell id="N7RJcf1-_diDyAEiEuR8-40" value="FALSE" style="text;html=1;strokeColor=none;fillColor=none;align=center;verticalAlign=middle;whiteSpace=wrap;rounded=0;" vertex="1" parent="1">
          <mxGeometry x="540" y="240" width="60" height="30" as="geometry" />
        </mxCell>
        <mxCell id="N7RJcf1-_diDyAEiEuR8-44" style="edgeStyle=orthogonalEdgeStyle;rounded=0;orthogonalLoop=1;jettySize=auto;html=1;exitX=0.5;exitY=1;exitDx=0;exitDy=0;entryX=0.456;entryY=-0.017;entryDx=0;entryDy=0;entryPerimeter=0;" edge="1" parent="1" source="N7RJcf1-_diDyAEiEuR8-41" target="N7RJcf1-_diDyAEiEuR8-1">
          <mxGeometry relative="1" as="geometry" />
        </mxCell>
        <mxCell id="N7RJcf1-_diDyAEiEuR8-41" value="" style="ellipse;whiteSpace=wrap;html=1;aspect=fixed;" vertex="1" parent="1">
          <mxGeometry x="450" y="20" width="10" height="10" as="geometry" />
        </mxCell>
        <mxCell id="N7RJcf1-_diDyAEiEuR8-42" value="" style="ellipse;whiteSpace=wrap;html=1;aspect=fixed;" vertex="1" parent="1">
          <mxGeometry x="820" y="265" width="10" height="10" as="geometry" />
        </mxCell>
      </root>
    </mxGraphModel>
  </diagram>
</mxfile>
